<svg xmlns="http://www.w3.org/2000/svg" width="64" height="64" viewBox="0 0 64 64"><g><g><path d="M64 32c0 17.672-14.328 32-32 32S0 49.672 0 32 14.328 0 32 0s32 14.328 32 32zm-4 0C60 16.562 47.437 4 32 4S4 16.562 4 32s12.563 28 28 28 28-12.562 28-28zm-19.932.984c.618 1.032.929 2.235.929 3.613 0 2.116-.64 3.878-1.917 5.287-1.277 1.413-3.122 2.244-5.534 2.494V48h-3.074v-3.603c-4.021-.406-6.509-2.713-7.469-6.913l4.754-1.222c.44 2.641 1.898 3.96 4.373 3.96 1.157 0 2.012-.281 2.557-.847a2.842 2.842 0 0 0 .818-2.047c0-.828-.273-1.456-.818-1.881-.545-.428-1.758-.969-3.638-1.625-1.689-.578-3.01-1.147-3.961-1.716-.95-.562-1.724-1.353-2.317-2.369-.592-1.018-.89-2.206-.89-3.556 0-1.772.532-3.369 1.59-4.787 1.06-1.416 2.726-2.282 5.002-2.597V16h3.074v2.797c3.435.406 5.66 2.322 6.67 5.75l-4.233 1.712c-.828-2.35-2.102-3.525-3.832-3.525-.868 0-1.565.263-2.088.788a2.6 2.6 0 0 0-.79 1.91c0 .762.254 1.346.761 1.756.504.406 1.591.909 3.252 1.512 1.825.656 3.258 1.278 4.294 1.863a6.704 6.704 0 0 1 2.487 2.421z"/></g></g></svg>