<svg xmlns="http://www.w3.org/2000/svg" width="53" height="64" viewBox="0 0 53 64"><g><g><path d="M42.461 50.202c-4.007 5.55-9.028 10.04-15.053 13.548-.547.319-1.283.345-1.752 0-6.07-3.45-11.098-7.974-15.115-13.548C3.167 39.97-.349 26.806.026 10.718.12 9.87.714 9.14 1.56 9.024A56.274 56.274 0 0 0 13.17 6.14C16.993 4.74 21.16 2.8 25.656.243c.574-.327 1.115-.325 1.69 0 4.527 2.56 8.724 4.503 12.518 5.896a55.746 55.746 0 0 0 11.642 2.885c.845.116 1.45.847 1.47 1.694.357 16.088-3.13 29.258-10.515 39.484zm7.042-37.947c-3.694-.597-7.386-1.6-11.047-2.95-3.662-1.347-7.636-3.198-11.955-5.55-4.319 2.352-8.324 4.203-11.985 5.55-3.662 1.35-7.324 2.353-11.016 2.95-.125 14.614 3.15 26.601 9.858 35.971C16.82 53.064 21.212 57.07 26.5 60.3c5.29-3.23 9.66-7.251 13.144-12.074 6.687-9.259 9.983-21.263 9.858-35.971z"/></g><g><path d="M26 17.923l2.434 7.49h7.875l-6.372 4.63 2.434 7.49L26 32.905l-6.372 4.63 2.433-7.491-6.372-4.63h7.877z"/></g></g></svg>