<svg xmlns="http://www.w3.org/2000/svg" width="45" height="64" viewBox="0 0 45 64"><g><g><path d="M15.978 56.802v5.776c0 .785-.65 1.422-1.45 1.422-.8 0-1.45-.637-1.45-1.422v-5.776c0-.785.65-1.422 1.45-1.422.8 0 1.45.637 1.45 1.422zM45 5.965v32.698c0 3.677-1.467 7.025-3.856 9.51v14.405c0 .785-.649 1.422-1.45 1.422-.8 0-1.449-.637-1.449-1.422v-12.09a14.253 14.253 0 0 1-7.383 2.048c-.8 0-1.45-.637-1.45-1.423 0-.785.65-1.422 1.45-1.422 6.197 0 11.24-4.947 11.24-11.028V22.65a6.127 6.127 0 0 1-3.181.884 6.114 6.114 0 0 1-4.63-2.106 6.106 6.106 0 0 1-3.823 2.052 6.928 6.928 0 0 1-6.25 3.894h-7.026v3.585c4.037.56 7.333 1.85 9.812 3.844 3.471 2.791 5.231 6.859 5.231 12.09 0 .785-.648 1.422-1.449 1.422-.8 0-1.45-.637-1.45-1.423 0-7.916-4.62-12.376-13.735-13.255a1.433 1.433 0 0 1-1.307-1.415v-4.848h-2.9c-.8 0-1.449-.637-1.449-1.423 0-.785.65-1.422 1.45-1.422h12.822c2.212 0 4.011-1.765 4.011-3.936a3.914 3.914 0 0 0-1.747-3.247v3.195c0 .785-.65 1.422-1.45 1.422H22.32c-2.811 0-5.098-2.244-5.098-5.003 0-.1.003-.202.01-.302H7.015c-2.27 0-4.116 1.812-4.116 4.039v17.965c0 6.08 5.042 11.028 11.24 11.028.8 0 1.449.637 1.449 1.422 0 .786-.65 1.423-1.45 1.423-1.042 0-2.057-.113-3.035-.323v10.365c0 .785-.65 1.422-1.45 1.422-.8 0-1.449-.637-1.449-1.422V51.253C3.364 49.047 0 44.233 0 38.663V20.698c0-3.131 2.142-5.779 5.063-6.61V5.964C5.063 2.675 7.79 0 11.143 0c1.852 0 3.513.819 4.629 2.106A6.114 6.114 0 0 1 20.402 0c1.853 0 3.514.819 4.63 2.106A6.114 6.114 0 0 1 29.662 0c1.852 0 3.513.819 4.63 2.106A6.114 6.114 0 0 1 38.92 0C42.273 0 45 2.676 45 5.965zm-27.779 0v7.85h6.361v-7.85c0-1.72-1.427-3.12-3.18-3.12-1.754 0-3.18 1.4-3.18 3.12zm-9.26 0v7.85h6.361v-7.85c0-1.72-1.426-3.12-3.18-3.12-1.753 0-3.18 1.4-3.18 3.12zM23.583 19.12v-2.461h-3.44c-.015.099-.022.2-.022.302 0 1.19.986 2.159 2.199 2.159zm9.26-1.55V5.965c0-1.72-1.427-3.12-3.18-3.12-1.754 0-3.18 1.4-3.18 3.12v8.225c2.623.895 4.531 3.3 4.639 6.151a3.117 3.117 0 0 0 1.72-2.771zm9.26 0V5.965c0-1.72-1.428-3.12-3.181-3.12-1.754 0-3.18 1.4-3.18 3.12V17.57c0 1.72 1.426 3.12 3.18 3.12 1.753 0 3.18-1.4 3.18-3.12zM9.272 7.965c0-.786.65-1.423 1.45-1.423h.839c.8 0 1.45.637 1.45 1.423 0 .785-.65 1.422-1.45 1.422h-.84c-.8 0-1.449-.637-1.449-1.422zm9.26 0c0-.786.649-1.423 1.45-1.423h.838c.8 0 1.45.637 1.45 1.423 0 .785-.65 1.422-1.45 1.422h-.839c-.8 0-1.45-.637-1.45-1.422zm12.997 0c0 .785-.649 1.422-1.45 1.422h-.838c-.8 0-1.45-.637-1.45-1.422 0-.786.65-1.423 1.45-1.423h.839c.8 0 1.45.637 1.45 1.423zm9.26 4.13c0 .786-.65 1.423-1.45 1.423h-.839c-.8 0-1.45-.637-1.45-1.422 0-.786.65-1.422 1.45-1.422h.84c.8 0 1.449.636 1.449 1.422zm0-4.13c0 .785-.65 1.422-1.45 1.422h-.839c-.8 0-1.45-.637-1.45-1.422 0-.786.65-1.423 1.45-1.423h.84c.8 0 1.449.637 1.449 1.423z"/></g></g></svg>