<svg xmlns="http://www.w3.org/2000/svg" width="333" height="379" viewBox="0 0 333 379"><g><g><path d="M163.91 123.863c-27.341 0-49.586 22.432-49.586 50.001 0 3.257-2.615 5.904-5.854 5.904-3.238 0-5.854-2.647-5.854-5.904 0-34.081 27.496-61.808 61.294-61.808 3.235 0 5.854 2.642 5.854 5.903 0 3.263-2.619 5.904-5.854 5.904zm3.833-40.478c49.472 0 89.719 40.587 89.719 90.48 0 20.131-6.415 39.182-18.546 55.098-25.852 36.003-19.14 53.409-19.072 53.582 1.224 2.951-.086 6.422-2.978 7.725-2.893 1.308-6.272.126-7.644-2.762-1.092-2.306-9.799-23.672 20.312-65.608 10.65-13.966 16.22-30.538 16.22-48.042 0-43.38-35-78.672-78.01-78.672-43.012 0-78.014 35.292-78.014 78.672 0 17.457 5.54 33.963 16.024 47.777.152.167.286.346.42.53 30.097 41.902 21.725 63.026 20.668 65.297a5.848 5.848 0 0 1-5.306 3.401 5.82 5.82 0 0 1-2.475-.553c-2.927-1.39-4.19-4.9-2.822-7.852 0-.034 6.369-17.094-19.254-52.965-.066-.075-.129-.156-.19-.23-12.285-15.982-18.78-35.137-18.78-55.399 0-49.886 40.254-90.48 89.728-90.48zm37.872 244.71h-78.896c-7.933 0-14.385-6.514-14.385-14.505v-5.016c0-8.002 6.452-14.505 14.385-14.505h78.89c7.924 0 14.384 6.503 14.384 14.505v5.016c0 8.002-6.449 14.505-14.378 14.505zm-78.896-11.807h78.896c1.475 0 2.67-1.21 2.67-2.698v-5.016c0-1.487-1.195-2.698-2.67-2.698h-78.896c-1.476 0-2.676 1.211-2.676 2.698v5.016c0 1.487 1.2 2.698 2.676 2.698zm15.33 26.693v11.796l25.654 11.807 25.82-12.291V342.98c0-3.263 2.62-5.903 5.855-5.903 3.235 0 5.854 2.64 5.854 5.903v15.047a5.913 5.913 0 0 1-3.35 5.34l-31.638 15.046c-.791.381-1.646.571-2.5.571a5.86 5.86 0 0 1-2.43-.53l-31.55-14.523a5.903 5.903 0 0 1-3.424-5.367V342.97c0-3.257 2.619-5.904 5.854-5.904 3.24 0 5.854 2.64 5.854 5.915zm157.363-60.04c-1.2 0-2.424-.373-3.47-1.152l-39.716-29.53c-2.595-1.936-3.155-5.632-1.234-8.255a5.816 5.816 0 0 1 8.186-1.245l39.71 29.53c2.602 1.936 3.156 5.632 1.235 8.255a5.817 5.817 0 0 1-4.71 2.398zM30.826 84.68c-2.604-1.937-3.153-5.633-1.235-8.259 1.92-2.623 5.586-3.188 8.184-1.245l40.61 30.19c2.601 1.937 3.156 5.632 1.235 8.253a5.834 5.834 0 0 1-4.717 2.403 5.791 5.791 0 0 1-3.473-1.152zm50.64 157.301c1.918 2.623 1.364 6.313-1.237 8.25l-42.443 31.565a5.837 5.837 0 0 1-8.19-1.251c-1.917-2.623-1.363-6.319 1.236-8.256l42.442-31.559c2.601-1.931 6.26-1.377 8.192 1.251zm214.488-166.8a5.808 5.808 0 0 1 8.18 1.246c1.922 2.62 1.372 6.316-1.234 8.253l-37.984 28.24a5.815 5.815 0 0 1-8.186-1.251c-1.921-2.62-1.372-6.315 1.235-8.252zm37.04 103.308c0 3.257-2.619 5.903-5.855 5.903h-44.775c-3.241 0-5.854-2.646-5.854-5.903 0-3.26 2.613-5.904 5.854-5.904h44.775c3.236 0 5.854 2.643 5.854 5.904zm-280.915 5.903H5.87c-3.238 0-5.854-2.646-5.854-5.903 0-3.26 2.616-5.904 5.854-5.904H52.08c3.235 0 5.854 2.643 5.854 5.904 0 3.257-2.625 5.903-5.854 5.903z"/><path fill="#ededed" d="M163.91 123.863c-27.341 0-49.586 22.432-49.586 50.001 0 3.257-2.615 5.904-5.854 5.904-3.238 0-5.854-2.647-5.854-5.904 0-34.081 27.496-61.808 61.294-61.808 3.235 0 5.854 2.642 5.854 5.903 0 3.263-2.619 5.904-5.854 5.904zm3.833-40.478c49.472 0 89.719 40.587 89.719 90.48 0 20.131-6.415 39.182-18.546 55.098-25.852 36.003-19.14 53.409-19.072 53.582 1.224 2.951-.086 6.422-2.978 7.725-2.893 1.308-6.272.126-7.644-2.762-1.092-2.306-9.799-23.672 20.312-65.608 10.65-13.966 16.22-30.538 16.22-48.042 0-43.38-35-78.672-78.01-78.672-43.012 0-78.014 35.292-78.014 78.672 0 17.457 5.54 33.963 16.024 47.777.152.167.286.346.42.53 30.097 41.902 21.725 63.026 20.668 65.297a5.848 5.848 0 0 1-5.306 3.401 5.82 5.82 0 0 1-2.475-.553c-2.927-1.39-4.19-4.9-2.822-7.852 0-.034 6.369-17.094-19.254-52.965-.066-.075-.129-.156-.19-.23-12.285-15.982-18.78-35.137-18.78-55.399 0-49.886 40.254-90.48 89.728-90.48zm37.872 244.71h-78.896c-7.933 0-14.385-6.514-14.385-14.505v-5.016c0-8.002 6.452-14.505 14.385-14.505h78.89c7.924 0 14.384 6.503 14.384 14.505v5.016c0 8.002-6.449 14.505-14.378 14.505zm-78.896-11.807h78.896c1.475 0 2.67-1.21 2.67-2.698v-5.016c0-1.487-1.195-2.698-2.67-2.698h-78.896c-1.476 0-2.676 1.211-2.676 2.698v5.016c0 1.487 1.2 2.698 2.676 2.698zm15.33 26.693v11.796l25.654 11.807 25.82-12.291V342.98c0-3.263 2.62-5.903 5.855-5.903 3.235 0 5.854 2.64 5.854 5.903v15.047a5.913 5.913 0 0 1-3.35 5.34l-31.638 15.046c-.791.381-1.646.571-2.5.571a5.86 5.86 0 0 1-2.43-.53l-31.55-14.523a5.903 5.903 0 0 1-3.424-5.367V342.97c0-3.257 2.619-5.904 5.854-5.904 3.24 0 5.854 2.64 5.854 5.915zm157.363-60.04c-1.2 0-2.424-.373-3.47-1.152l-39.716-29.53c-2.595-1.936-3.155-5.632-1.234-8.255a5.816 5.816 0 0 1 8.186-1.245l39.71 29.53c2.602 1.936 3.156 5.632 1.235 8.255a5.817 5.817 0 0 1-4.71 2.398zM30.826 84.68c-2.604-1.937-3.153-5.633-1.235-8.259 1.92-2.623 5.586-3.188 8.184-1.245l40.61 30.19c2.601 1.937 3.156 5.632 1.235 8.253a5.834 5.834 0 0 1-4.717 2.403 5.791 5.791 0 0 1-3.473-1.152zm50.64 157.301c1.918 2.623 1.364 6.313-1.237 8.25l-42.443 31.565a5.837 5.837 0 0 1-8.19-1.251c-1.917-2.623-1.363-6.319 1.236-8.256l42.442-31.559c2.601-1.931 6.26-1.377 8.192 1.251zm214.488-166.8a5.808 5.808 0 0 1 8.18 1.246c1.922 2.62 1.372 6.316-1.234 8.253l-37.984 28.24a5.815 5.815 0 0 1-8.186-1.251c-1.921-2.62-1.372-6.315 1.235-8.252zm37.04 103.308c0 3.257-2.619 5.903-5.855 5.903h-44.775c-3.241 0-5.854-2.646-5.854-5.903 0-3.26 2.613-5.904 5.854-5.904h44.775c3.236 0 5.854 2.643 5.854 5.904zm-280.915 5.903H5.87c-3.238 0-5.854-2.646-5.854-5.903 0-3.26 2.616-5.904 5.854-5.904H52.08c3.235 0 5.854 2.643 5.854 5.904 0 3.257-2.625 5.903-5.854 5.903z"/></g><g><path d="M264.777.677c8.092 2.233 15.04 8.12 12.605 16.942-2.245 8.137-12.528 8.666-15.362 11.048-2.122 1.768-2.462 4.98-6.636 3.828-2.717-.75-3.441-3.305-2.889-5.307 2.056-7.45 13.582-6.085 15.274-12.22.932-3.377-.787-6.006-4.582-7.053-8.092-2.233-7.21 6.896-13.34 5.205-2.212-.61-3.748-2.449-3.058-4.95 1.694-6.137 10.274-9.621 17.988-7.493zm-10.26 35.952c2.841.784 4.546 3.743 3.768 6.562-.778 2.82-3.756 4.487-6.6 3.702-2.845-.785-4.548-3.741-3.77-6.563.778-2.82 3.757-4.486 6.602-3.701z"/><path fill="#ededed" d="M264.777.677c8.092 2.233 15.04 8.12 12.605 16.942-2.245 8.137-12.528 8.666-15.362 11.048-2.122 1.768-2.462 4.98-6.636 3.828-2.717-.75-3.441-3.305-2.889-5.307 2.056-7.45 13.582-6.085 15.274-12.22.932-3.377-.787-6.006-4.582-7.053-8.092-2.233-7.21 6.896-13.34 5.205-2.212-.61-3.748-2.449-3.058-4.95 1.694-6.137 10.274-9.621 17.988-7.493zm-10.26 35.952c2.841.784 4.546 3.743 3.768 6.562-.778 2.82-3.756 4.487-6.6 3.702-2.845-.785-4.548-3.741-3.77-6.563.778-2.82 3.757-4.486 6.602-3.701z"/></g><g><path d="M85.275 52.214c4.665-2.931 10.593-3.69 13.789 1.395 2.947 4.69-1.35 9.906-1.45 12.334-.083 1.81 1.321 3.397-1.084 4.91-1.567.984-3.125.203-3.85-.95-2.7-4.295 3.065-9.275.843-12.81-1.223-1.947-3.258-2.279-5.446-.904-4.664 2.931.148 6.547-3.384 8.767-1.276.8-2.846.731-3.753-.71-2.223-3.538-.111-9.238 4.335-12.032zm12.873 20.888c1.638-1.029 3.826-.544 4.847 1.081 1.021 1.625.51 3.806-1.129 4.836-1.64 1.03-3.826.547-4.848-1.08-1.021-1.625-.51-3.806 1.13-4.837z"/><path fill="#ededed" d="M85.275 52.214c4.665-2.931 10.593-3.69 13.789 1.395 2.947 4.69-1.35 9.906-1.45 12.334-.083 1.81 1.321 3.397-1.084 4.91-1.567.984-3.125.203-3.85-.95-2.7-4.295 3.065-9.275.843-12.81-1.223-1.947-3.258-2.279-5.446-.904-4.664 2.931.148 6.547-3.384 8.767-1.276.8-2.846.731-3.753-.71-2.223-3.538-.111-9.238 4.335-12.032zm12.873 20.888c1.638-1.029 3.826-.544 4.847 1.081 1.021 1.625.51 3.806-1.129 4.836-1.64 1.03-3.826.547-4.848-1.08-1.021-1.625-.51-3.806 1.13-4.837z"/></g><g><path d="M45.943 319.289c6.693-1.396 13.919.281 15.44 7.58 1.403 6.73-5.85 10.942-7.015 13.722-.879 2.072.07 4.525-3.381 5.245-2.249.468-3.725-1.113-4.07-2.769-1.284-6.162 7.573-9.466 6.515-14.54-.582-2.793-2.806-4.058-5.946-3.403-6.693 1.395-2.656 7.68-7.725 8.738-1.83.381-3.627-.378-4.059-2.447-1.058-5.077 3.86-10.796 10.24-12.126zm5.955 29.864c2.35-.49 4.686 1.02 5.172 3.351.487 2.332-1.05 4.649-3.402 5.14-2.354.49-4.688-1.017-5.175-3.352-.486-2.331 1.051-4.648 3.405-5.139z"/><path fill="#ededed" d="M45.943 319.289c6.693-1.396 13.919.281 15.44 7.58 1.403 6.73-5.85 10.942-7.015 13.722-.879 2.072.07 4.525-3.381 5.245-2.249.468-3.725-1.113-4.07-2.769-1.284-6.162 7.573-9.466 6.515-14.54-.582-2.793-2.806-4.058-5.946-3.403-6.693 1.395-2.656 7.68-7.725 8.738-1.83.381-3.627-.378-4.059-2.447-1.058-5.077 3.86-10.796 10.24-12.126zm5.955 29.864c2.35-.49 4.686 1.02 5.172 3.351.487 2.332-1.05 4.649-3.402 5.14-2.354.49-4.688-1.017-5.175-3.352-.486-2.331 1.051-4.648 3.405-5.139z"/></g><g><path d="M310.588 216.51c2.89 1.597 5.01 4.486 3.268 7.638-1.605 2.907-5.587 2.166-6.89 2.817-.974.482-1.399 1.68-2.89.856-.97-.536-1.013-1.58-.618-2.295 1.47-2.661 5.754-1.082 6.964-3.274.666-1.206.25-2.37-1.106-3.118-2.89-1.597-3.391 1.976-5.58.767-.79-.436-1.21-1.28-.716-2.174 1.21-2.192 4.813-2.738 7.568-1.216zm-7.222 12.813c1.014.56 1.395 1.849.839 2.856s-1.848 1.372-2.864.81c-1.017-.56-1.397-1.848-.84-2.856.556-1.007 1.848-1.372 2.865-.81z"/><path fill="#ededed" d="M310.588 216.51c2.89 1.597 5.01 4.486 3.268 7.638-1.605 2.907-5.587 2.166-6.89 2.817-.974.482-1.399 1.68-2.89.856-.97-.536-1.013-1.58-.618-2.295 1.47-2.661 5.754-1.082 6.964-3.274.666-1.206.25-2.37-1.106-3.118-2.89-1.597-3.391 1.976-5.58.767-.79-.436-1.21-1.28-.716-2.174 1.21-2.192 4.813-2.738 7.568-1.216zm-7.222 12.813c1.014.56 1.395 1.849.839 2.856s-1.848 1.372-2.864.81c-1.017-.56-1.397-1.848-.84-2.856.556-1.007 1.848-1.372 2.865-.81z"/></g></g></svg>