<svg xmlns="http://www.w3.org/2000/svg" width="23" height="18" viewBox="0 0 23 18"><g><g><path d="M23 3v12c0 1.49-1.495 3-3 3H3c-1.505 0-3-1.51-3-3V3c0-1.49 1.495-3 3-3h17c1.505 0 3 1.51 3 3zm-2 12V4l-8 7c-.163.142-.617.488-.83.488h-1.34a.888.888 0 0 1-.582-.22L2 4v11c0 .169.779 1 1 1h17c.221 0 1-.832 1-1zM20 2H3l8.5 7.12z"/><path fill="#f30a0a" d="M23 3v12c0 1.49-1.495 3-3 3H3c-1.505 0-3-1.51-3-3V3c0-1.49 1.495-3 3-3h17c1.505 0 3 1.51 3 3zm-2 12V4l-8 7c-.163.142-.617.488-.83.488h-1.34a.888.888 0 0 1-.582-.22L2 4v11c0 .169.779 1 1 1h17c.221 0 1-.832 1-1zM20 2H3l8.5 7.12z"/></g></g></svg>