<svg xmlns="http://www.w3.org/2000/svg" width="81" height="64" viewBox="0 0 81 64"><g><g><path d="M28.76 31.384c-.148 0-.296.018-.442.053a1.806 1.806 0 0 0-1.38 1.941 1.798 1.798 0 0 1-1.092 1.849 1.854 1.854 0 0 1-2.119-.477L10.114 19.197a1.78 1.78 0 0 1 0-2.351l7.887-9.011a1.845 1.845 0 0 1 1.39-.627h6.436c.708 0 1.352.401 1.656 1.03a1.779 1.779 0 0 1-.236 1.912c-.066.08-.13.159-.193.24-1.57 2.03-2.054 4.495-1.364 6.942 1.366 4.849 7.814 6.696 13.504 8.326l1.556.447c5.58 1.598 9.016 2.738 9.675 5.08.332 1.174.116 2.265-.64 3.242-1.148 1.484-3.947 3.07-8.36 3.07-5.893 0-10.167-1.861-10.89-4.741a1.821 1.821 0 0 0-1.775-1.372zm0-3.604c2.534 0 4.727 1.691 5.334 4.113.184.506 2.35 2 7.331 2 3.059 0 4.93-.986 5.443-1.648l.011-.015c-.203-.174-.794-.58-2.38-1.173-1.448-.54-3.215-1.046-4.774-1.492l-1.557-.447c-6.28-1.8-14.098-4.039-16.01-10.823-.723-2.564-.56-5.14.44-7.482h-2.367l-6.31 7.208 10.44 11.929a5.485 5.485 0 0 1 3.08-2.012 5.617 5.617 0 0 1 1.319-.158zM50.42 40.445c.5.676.461 1.601-.093 2.235l-8.441 9.644a1.846 1.846 0 0 1-1.39.626c-.533 0-1.04-.229-1.388-.626l-8.828-10.086a1.78 1.78 0 0 1-.076-2.258 1.852 1.852 0 0 1 2.226-.557c2.446 1.098 5.555 1.678 8.994 1.678 2.454 0 4.807-.435 6.806-1.259a1.85 1.85 0 0 1 2.19.603zm-6.597 4.14c-.788.08-1.59.12-2.4.12-1.527 0-3.006-.103-4.414-.305l3.488 3.985zm19.171-36.75l7.887 9.01a1.78 1.78 0 0 1 0 2.352l-13.505 15.43a1.846 1.846 0 0 1-2.144.466 1.797 1.797 0 0 1-1.06-1.89 7.206 7.206 0 0 0-.215-2.981c-1.253-4.447-6.562-5.967-12.183-7.578l-1.557-.447c-5.958-1.706-10.234-3.123-10.997-5.827-.387-1.376-.135-2.654.75-3.799 1.311-1.694 4.493-3.505 9.493-3.505 6.216 0 12.487 2.036 12.487 6.584 0 .994.823 1.802 1.833 1.802s1.833-.808 1.833-1.802c0-2.057-.705-3.891-2.094-5.453a1.779 1.779 0 0 1-.29-1.931 1.835 1.835 0 0 1 1.67-1.057h6.703c.534 0 1.04.228 1.39.626zm4.08 10.186l-6.31-7.208h-2.524a11.58 11.58 0 0 1 1.04 4.837c0 2.981-2.466 5.407-5.497 5.407-3.031 0-5.498-2.426-5.498-5.407 0-1.407-3.772-2.98-8.822-2.98-3.926 0-6.018 1.363-6.575 2.083-.195.252-.213.36-.149.607.08.11.588.697 2.888 1.591 1.734.674 3.796 1.265 5.616 1.786l1.557.447c5.973 1.711 12.735 3.649 14.626 9.86zm13.478 1.176L41.887 63.373a1.846 1.846 0 0 1-1.39.627c-.533 0-1.04-.229-1.388-.627L.443 19.197a1.78 1.78 0 0 1 0-2.351L14.639.626A1.846 1.846 0 0 1 16.028 0h48.94c.534 0 1.04.229 1.389.626l14.196 16.22a1.78 1.78 0 0 1 0 2.351zm-3.806-1.176L64.127 3.604H16.869L4.25 18.021l36.249 41.414z"/></g></g></svg>